PathFileType	4	(X/Y/Z)	/Users/itak/Documents/Research/Walk-IL/dataset/trc/00318_00011.trc
DataRate	CameraRate	NumFrames	NumMarkers	Units	OrigDataRate	OrigDataStartFrame	OrigNumFrames
100.000000	100.000000	4	53	mm	100.000000	474	542
Frame#	Time	RPSI			LPSI			L3			STRN			T10			C7			CLAV			RBAK			LBAK			LSHO			LUPA			LAEL			LAOL			LWTS			LWPS			LFRA			LHPS			LHTS			RSHO			RUPA			RAEL			RAOL			RWTS			RWPS			RFRA			RIFD			RHTS			RHPS			RBHD			LFHD			RFHD			LBHD			LHIP			RHIP			RASI			LASI			LKNE			LTHI			LANK			LTIP			LTOE			LMT1			LMT5			LHEE			RKNE			RTHI			RANK			RTIP			RTOE			RMT1			RMT5			RHEE			LIFD			
		X1	Y1	Z1	X2	Y2	Z2	X3	Y3	Z3	X4	Y4	Z4	X5	Y5	Z5	X6	Y6	Z6	X7	Y7	Z7	X8	Y8	Z8	X9	Y9	Z9	X10	Y10	Z10	X11	Y11	Z11	X12	Y12	Z12	X13	Y13	Z13	X14	Y14	Z14	X15	Y15	Z15	X16	Y16	Z16	X17	Y17	Z17	X18	Y18	Z18	X19	Y19	Z19	X20	Y20	Z20	X21	Y21	Z21	X22	Y22	Z22	X23	Y23	Z23	X24	Y24	Z24	X25	Y25	Z25	X26	Y26	Z26	X27	Y27	Z27	X28	Y28	Z28	X29	Y29	Z29	X30	Y30	Z30	X31	Y31	Z31	X32	Y32	Z32	X33	Y33	Z33	X34	Y34	Z34	X35	Y35	Z35	X36	Y36	Z36	X37	Y37	Z37	X38	Y38	Z38	X39	Y39	Z39	X40	Y40	Z40	X41	Y41	Z41	X42	Y42	Z42	X43	Y43	Z43	X44	Y44	Z44	X45	Y45	Z45	X46	Y46	Z46	X47	Y47	Z47	X48	Y48	Z48	X49	Y49	Z49	X50	Y50	Z50	X51	Y51	Z51	X52	Y52	Z52	X53	Y53	Z53	

475	4.74	812.266357421875	971.7180786132812	91.94015502929688	806.5360717773438	974.2984008789062	-36.77220916748047	803.26611328125	1025.890991210938	31.52220153808594	1014.620422363281	1223.869018554688	9.633758544921875	777.4930419921875	1144.1953125	21.25057601928711	795.256103515625	1395.000610351562	-0.2408199906349182	958.0238647460938	1342.747436523438	4.810175895690918	759.3218994140625	1253.620483398438	71.45161437988281	788.6813354492188	1355.46435546875	-100.0071640014648	873.0062255859375	1372.985961914062	-156.4116973876953	857.2714233398438	1251.951171875	-222.9229431152344	881.279052734375	1048.692626953125	-234.5982513427734	823.1517944335938	1032.916748046875	-174.0748443603516	991.6580200195312	810.7842407226562	-204.8928375244141	944.8948974609375	797.8936157226562	-254.2057952880859	899.7323608398438	945.608642578125	-243.39892578125	945.8573608398438	727.2227783203125	-248.2380828857422	1003.899719238281	732.7587890625	-222.2127838134766	858.7907104492188	1384.63037109375	161.9263000488281	856.365234375	1320.833374023438	228.7894439697266	919.3892822265625	1062.390502929688	279.7772827148438	877.9413452148438	1038.91650390625	198.4379730224609	1095.49609375	883.5795288085938	231.9290161132812	1069.8173828125	855.6088256835938	298.7145690917969	963.9349365234375	1004.344055175781	291.3765258789062	1173.407104492188	727.8894653320312	243.9471130371094	1158.376220703125	799.6657104492188	244.7873077392578	1111.582885742188	784.8040771484375	293.6371765136719	817.045166015625	1590.3505859375	79.22587585449219	981.0284423828125	1631.84423828125	-42.24855041503906	972.7288208007812	1631.69287109375	58.49308013916016	802.6699829101562	1580.943237304688	-64.63196563720703	892.4926147460938	918.8734741210938	-143.2979583740234	897.0838012695312	918.7061767578125	198.3222503662109	998.3314208984375	950.4635620117188	151.2490844726562	1010.426391601562	948.2158813476562	-88.49588775634766	925.08349609375	460.9663696289062	-135.2985076904297	932.5281372070312	601.1680297851562	-144.2192077636719	855.1384887695312	41.05195236206055	-119.9117736816406	889.8209838867188	244.9602813720703	-141.4358367919922	1065.308959960938	34.29106903076172	-76.72910308837891	999.3657836914062	22.37804794311523	-29.9599494934082	979.57275390625	33.78093719482422	-141.8903198242188	826.024169921875	36.71271133422852	-50.64673233032227	916.5594482421875	453.8097229003906	158.6678771972656	965.6251220703125	710.543212890625	192.2902679443359	851.9781494140625	45.82424926757812	115.7178726196289	919.80224609375	335.3513793945312	144.6032104492188	1045.239135742188	30.94540786743164	68.74172973632812	988.7789306640625	29.71323394775391	25.7977466583252	949.7823486328125	28.89486122131348	137.2210235595703	800.8941040039062	46.3975944519043	68.72288513183594	1003.360961914062	649.750244140625	-203.8328704833984	
476	4.75	813.7862548828125	971.7218627929688	91.28497314453125	808.1240234375	974.3939819335938	-37.39297485351562	805.1132202148438	1025.7373046875	30.93915557861328	1015.949279785156	1223.702270507812	9.44146728515625	778.8933715820312	1143.849731445312	21.0004940032959	796.4620971679688	1394.730346679688	-0.5856339335441589	959.2992553710938	1342.56787109375	4.574412822723389	760.6029052734375	1253.394287109375	71.02836608886719	789.9111328125	1355.0849609375	-100.3788833618164	874.242919921875	1372.650268554688	-156.6892852783203	858.8383178710938	1251.578125	-223.2109832763672	884.0846557617188	1048.496337890625	-235.1976928710938	825.904541015625	1032.234619140625	-174.9156951904297	997.4993896484375	812.2052612304688	-205.1713409423828	951.0577392578125	798.5252685546875	-254.5700988769531	903.7377319335938	945.5537109375	-244.0801391601562	953.1774291992188	727.9033203125	-248.5966644287109	1011.123046875	734.5520629882812	-222.5488739013672	859.9126586914062	1384.415771484375	161.6062469482422	857.2951049804688	1320.4892578125	228.3917388916016	919.2675170898438	1061.576782226562	278.5888366699219	877.8939208984375	1038.648681640625	196.8461303710938	1093.859130859375	881.028564453125	230.7206115722656	1067.790771484375	853.352783203125	297.4632263183594	963.4028930664062	1003.2177734375	289.9770812988281	1169.4736328125	724.0753173828125	242.5868530273438	1155.46533203125	795.993896484375	243.5796966552734	1108.698974609375	781.3416748046875	292.3566589355469	818.3595581054688	1590.34423828125	78.77476501464844	982.3408813476562	1631.55419921875	-42.79679489135742	974.0926513671875	1631.467407226562	57.95334625244141	803.8744506835938	1580.883544921875	-65.05075073242188	893.7642211914062	918.6959228515625	-144.0929565429688	898.66162109375	918.6514892578125	197.7314605712891	999.9163818359375	950.2330322265625	150.4905700683594	1011.841430664062	947.9700317382812	-89.38990020751953	923.9998779296875	460.733154296875	-136.1777648925781	932.171142578125	600.9307250976562	-145.0343627929688	854.9974975585938	40.84033584594727	-120.091682434082	888.960205078125	244.8580474853516	-141.93212890625	1065.150390625	34.40129470825195	-76.81874847412109	999.258544921875	22.57978248596191	-30.14547920227051	979.518798828125	33.69314575195312	-142.0684204101562	825.8955078125	36.61663055419922	-50.82187652587891	917.323974609375	453.7979125976562	158.4136047363281	967.0175170898438	710.4529418945312	191.8226318359375	851.970458984375	45.81829833984375	115.7163467407227	920.36572265625	335.3128051757812	144.4427795410156	1045.2265625	30.97219657897949	68.74404144287109	988.7672119140625	29.69964790344238	25.80363845825195	949.7836303710938	28.88888549804688	137.2277679443359	800.8754272460938	46.38801193237305	68.75238800048828	1011.992736816406	651.5301513671875	-204.1122436523438	
477	4.76	815.1668701171875	971.6102905273438	90.66020965576172	809.4915771484375	974.3197021484375	-37.98290634155273	806.7947998046875	1025.557495117188	30.37382888793945	1017.226745605469	1223.46240234375	9.250218391418457	780.1972045898438	1143.5302734375	20.75065040588379	797.6834716796875	1394.4853515625	-0.9336552023887634	960.5715942382812	1342.349731445312	4.332937717437744	761.8568725585938	1253.185180664062	70.58774566650391	791.1504516601562	1354.72509765625	-100.7559432983398	875.5076293945312	1372.289794921875	-156.9824523925781	860.4279174804688	1251.162719726562	-223.4990081787109	886.881103515625	1048.26708984375	-235.8113403320312	828.64208984375	1031.5107421875	-175.7817230224609	1003.241516113281	813.6129150390625	-205.3881225585938	957.1768188476562	799.1723022460938	-254.91015625	907.7109375	945.4619140625	-244.7654724121094	960.4677734375	728.6268310546875	-248.9317626953125	1018.294006347656	736.38232421875	-222.8562316894531	861.0584716796875	1384.178588867188	161.3033905029297	858.2422485351562	1320.115844726562	228.0047912597656	919.1422729492188	1060.733276367188	277.4405212402344	877.800048828125	1038.346923828125	195.3483428955078	1092.124267578125	878.4417114257812	229.5998382568359	1065.666381835938	851.0958862304688	296.2881774902344	962.8046264648438	1002.065307617188	288.6399230957031	1165.469482421875	720.2994384765625	241.3576507568359	1152.472778320312	792.378173828125	242.4684295654297	1105.705322265625	778.0017700195312	291.1578979492188	819.6376342773438	1590.305053710938	78.31917572021484	983.60302734375	1631.30859375	-43.35572814941406	975.4032592773438	1631.284545898438	57.41868591308594	805.0614013671875	1580.784545898438	-65.46540832519531	894.7855224609375	918.3961181640625	-144.8892822265625	900.1580810546875	918.5640869140625	197.1132965087891	1001.391540527344	949.9750366210938	149.6836700439453	1013.096069335938	947.7009887695312	-90.34379577636719	923.3216552734375	460.4520568847656	-136.8813171386719	931.8155517578125	600.7189331054688	-145.7611999511719	854.8890991210938	40.68216705322266	-120.1825942993164	888.360107421875	244.6976470947266	-142.2688751220703	1065.033447265625	34.47555160522461	-76.87934875488281	999.1743774414062	22.71836853027344	-30.27181816101074	979.4698486328125	33.63169479370117	-142.1916961669922	825.798095703125	36.52376556396484	-50.91289901733398	918.0590209960938	453.7733154296875	158.0967864990234	968.3311767578125	710.3599243164062	191.2870025634766	851.9501953125	45.81936264038086	115.6959075927734	920.9019775390625	335.2676696777344	144.2064361572266	1045.207153320312	31.00966453552246	68.74962615966797	988.7582397460938	29.6799488067627	25.80176734924316	949.78173828125	28.88809967041016	137.2278900146484	800.8443603515625	46.36164474487305	68.76081085205078	1020.647766113281	653.3851928710938	-204.3884887695312	
478	4.77	816.4172973632812	971.3980712890625	90.08262634277344	810.628662109375	974.1015014648438	-38.52541351318359	808.2711181640625	1025.35986328125	29.83526802062988	1018.451721191406	1223.16845703125	9.045083999633789	781.4255981445312	1143.256958007812	20.4990119934082	798.9202270507812	1394.2783203125	-1.285337090492249	961.8377075195312	1342.107177734375	4.078230857849121	763.0733032226562	1253.00634765625	70.12802886962891	792.3956298828125	1354.408813476562	-101.1398239135742	876.7926635742188	1371.930541992188	-157.2951354980469	862.036865234375	1250.731689453125	-223.7949981689453	889.6871948242188	1048.034790039062	-236.4427947998047	831.3712768554688	1030.775512695312	-176.6782836914062	1008.864929199219	815.0211181640625	-205.5350646972656	963.23291015625	799.8527221679688	-255.2207183837891	911.6591186523438	945.3619384765625	-245.4480895996094	967.6973266601562	729.4096069335938	-249.2390441894531	1025.368408203125	738.2451171875	-223.1123809814453	862.2371215820312	1383.930908203125	161.018798828125	859.2202758789062	1319.727172851562	227.6297302246094	919.0157470703125	1059.874877929688	276.3294982910156	877.6796264648438	1038.022338867188	193.9557037353516	1090.30029296875	875.8442993164062	228.5681915283203	1063.453979492188	848.8668212890625	295.1932373046875	962.1448974609375	1000.898254394531	287.3726806640625	1161.436279296875	716.6089477539062	240.2705078125	1149.426635742188	788.8637084960938	241.4485473632812	1102.619506835938	774.8310546875	290.0470275878906	820.8816528320312	1590.24365234375	77.86000061035156	984.8190307617188	1631.119995117188	-43.92075729370117	976.6631469726562	1631.151489257812	56.89417266845703	806.235595703125	1580.65771484375	-65.88095855712891	895.6530151367188	918.0026245117188	-145.6264801025391	901.5769653320312	918.4415283203125	196.4675598144531	1002.755493164062	949.7017211914062	148.8395233154297	1014.188293457031	947.4282836914062	-91.33631896972656	923.0216674804688	460.1757507324219	-137.415283203125	931.4606323242188	600.5575561523438	-146.4026794433594	854.8137817382812	40.57587814331055	-120.1953506469727	888.012451171875	244.5037994384766	-142.4618682861328	1064.95654296875	34.51758193969727	-76.91548919677734	999.1175537109375	22.78926086425781	-30.33985137939453	979.42919921875	33.59450531005859	-142.2628173828125	825.733642578125	36.4399528503418	-50.92952346801758	918.7766723632812	453.74267578125	157.7079162597656	969.5587768554688	710.264404296875	190.6820526123047	851.9199829101562	45.82569122314453	115.6577835083008	921.42236328125	335.2135620117188	143.8779602050781	1045.179931640625	31.05602645874023	68.75936126708984	988.7513427734375	29.65443992614746	25.79204940795898	949.7748413085938	28.89263534545898	137.2201538085938	800.8023071289062	46.32374572753906	68.74258422851562	1029.250366210938	655.3244018554688	-204.6539611816406	
